<mxfile host="app.diagrams.net" agent="Mozilla/5.0 (Windows NT 10.0; Win64; x64) AppleWebKit/537.36 (KHTML, like Gecko) Chrome/130.0.0.0 Safari/537.36" version="24.8.6">
  <diagram name="Page-1" id="-Sb2iiyz_SoWNLAZgfZH">
    <mxGraphModel dx="600" dy="318" grid="1" gridSize="10" guides="1" tooltips="1" connect="1" arrows="1" fold="1" page="1" pageScale="1" pageWidth="850" pageHeight="1100" math="0" shadow="0">
      <root>
        <mxCell id="0" />
        <mxCell id="1" parent="0" />
        <mxCell id="ds9kkb-RaBtkJ015G7hP-6" value="" style="edgeStyle=orthogonalEdgeStyle;rounded=0;orthogonalLoop=1;jettySize=auto;html=1;" edge="1" parent="1" source="ds9kkb-RaBtkJ015G7hP-1" target="ds9kkb-RaBtkJ015G7hP-5">
          <mxGeometry relative="1" as="geometry" />
        </mxCell>
        <mxCell id="ds9kkb-RaBtkJ015G7hP-9" style="edgeStyle=orthogonalEdgeStyle;rounded=0;orthogonalLoop=1;jettySize=auto;html=1;" edge="1" parent="1" source="ds9kkb-RaBtkJ015G7hP-1">
          <mxGeometry relative="1" as="geometry">
            <mxPoint x="320" y="330" as="targetPoint" />
          </mxGeometry>
        </mxCell>
        <mxCell id="ds9kkb-RaBtkJ015G7hP-13" value="" style="edgeStyle=orthogonalEdgeStyle;rounded=0;orthogonalLoop=1;jettySize=auto;html=1;" edge="1" parent="1" source="ds9kkb-RaBtkJ015G7hP-1" target="ds9kkb-RaBtkJ015G7hP-12">
          <mxGeometry relative="1" as="geometry" />
        </mxCell>
        <mxCell id="ds9kkb-RaBtkJ015G7hP-18" style="edgeStyle=orthogonalEdgeStyle;rounded=0;orthogonalLoop=1;jettySize=auto;html=1;" edge="1" parent="1" source="ds9kkb-RaBtkJ015G7hP-1" target="ds9kkb-RaBtkJ015G7hP-14">
          <mxGeometry relative="1" as="geometry">
            <Array as="points">
              <mxPoint x="500" y="310" />
            </Array>
          </mxGeometry>
        </mxCell>
        <mxCell id="ds9kkb-RaBtkJ015G7hP-1" value="&lt;h2&gt;Patient&amp;nbsp;&lt;/h2&gt;" style="rounded=0;whiteSpace=wrap;html=1;" vertex="1" parent="1">
          <mxGeometry x="360" y="260" width="120" height="60" as="geometry" />
        </mxCell>
        <mxCell id="ds9kkb-RaBtkJ015G7hP-5" value="SSN" style="ellipse;whiteSpace=wrap;html=1;fontStyle=4" vertex="1" parent="1">
          <mxGeometry x="380" y="380" width="80" height="40" as="geometry" />
        </mxCell>
        <mxCell id="ds9kkb-RaBtkJ015G7hP-7" value="Names" style="ellipse;whiteSpace=wrap;html=1;" vertex="1" parent="1">
          <mxGeometry x="280" y="330" width="80" height="40" as="geometry" />
        </mxCell>
        <mxCell id="ds9kkb-RaBtkJ015G7hP-12" value="Address" style="ellipse;whiteSpace=wrap;html=1;" vertex="1" parent="1">
          <mxGeometry x="520" y="270" width="80" height="40" as="geometry" />
        </mxCell>
        <mxCell id="ds9kkb-RaBtkJ015G7hP-14" value="Ages" style="ellipse;whiteSpace=wrap;html=1;dashed=1;" vertex="1" parent="1">
          <mxGeometry x="490" y="330" width="80" height="40" as="geometry" />
        </mxCell>
      </root>
    </mxGraphModel>
  </diagram>
</mxfile>
